<svg xmlns="http://www.w3.org/2000/svg" viewBox="0 0 32 32" width="32" height="32">
  <rect width="32" height="32" fill="#0b0c0c" />
  <path d="M22.6 11.4c-.8.3-1.6.1-1.9-.6-.3-.7-.1-1.6.6-1.9.7-.3 1.6-.1 1.9.6.4.7.1 1.6-.6 1.9zm-10.6 0c.7-.3 1-.1.6-1.9-.3-.7-1.2-1-1.9-.6-.7.3-1 .1-.6 1.9.3.7 1.2 1.0 1.9.6zm3.2 3.2c.7-.3 1-.1.6-1.9-.3-.7-1.2-1-1.9-.6-.7.3-1 .1-.6 1.9.3.7 1.2 1.0 1.9.6zm7.1 2.8c-.7.3-1 .1-.6 1.9.3.7 1.2 1.0 1.9.6.7-.3 1-.1.6-1.9-.3-.7-1.2-1.0-1.9-.6zm-11 0c.7-.3 1-.1.6-1.9-.3-.7-1.2-1.0-1.9-.6-.7.3-1 .1-.6 1.9.3.7 1.2 1.0 1.9.6zM25 19c0-.5-.4-.8-.8-.8h-.9c-.5 0-.8.3-.8.8v1.6h-3.1v-1.6c0-.5-.4-.8-.8-.8h-.9c-.5 0-.8.3-.8.8v1.6H15v-1.6c0-.5-.4-.8-.8-.8h-.9c-.5 0-.8.3-.8.8v1.6h-1.6c-.5 0-.8.3-.8.8v2.4c0 .5.3.8.8.8h17.6c.5 0 .8-.3.8-.8v-2.4c0-.5-.3-.8-.8-.8h-1.6V19zm-15.2 4.8h16v1.6h-16v-1.6z" fill="#ffffff" />
</svg>
